<svg width="1600" height="1000" viewBox="0 0 1600 1000" fill="none" xmlns="http://www.w3.org/2000/svg">
  <rect width="1600" height="1000" rx="40" fill="#EFF6FF"/>
  <rect x="140" y="140" width="1320" height="720" rx="40" fill="#FFFFFF" stroke="#BFDBFE" stroke-width="2"/>
  <rect x="180" y="190" width="1040" height="460" rx="28" fill="#DBEAFE"/>
  <rect x="220" y="230" width="240" height="32" rx="16" fill="#93C5FD"/>
  <rect x="220" y="290" width="520" height="18" rx="9" fill="#BFDBFE"/>
  <rect x="220" y="330" width="420" height="18" rx="9" fill="#BFDBFE"/>
  <rect x="220" y="370" width="520" height="18" rx="9" fill="#E0F2FE"/>
  <rect x="220" y="410" width="500" height="18" rx="9" fill="#E0F2FE"/>
  <rect x="220" y="450" width="300" height="18" rx="9" fill="#E0F2FE"/>
  <rect x="220" y="520" width="360" height="18" rx="9" fill="#BFDBFE"/>
  <rect x="780" y="690" width="460" height="180" rx="26" fill="#BFDBFE"/>
  <rect x="880" y="520" width="320" height="200" rx="24" fill="#2563EB"/>
  <rect x="900" y="540" width="280" height="140" rx="18" fill="#1D4ED8"/>
  <rect x="260" y="720" width="760" height="24" rx="12" fill="#DBEAFE"/>
  <rect x="260" y="770" width="540" height="18" rx="9" fill="#BFDBFE"/>
  <rect x="260" y="810" width="620" height="18" rx="9" fill="#BFDBFE"/>
</svg>
